<?xml version="1.0" encoding="UTF-8" standalone="no"?>
<!-- Created with Inkscape (http://www.inkscape.org/) -->

<svg
   width="210mm"
   height="297mm"
   viewBox="0 0 210 297"
   version="1.1"
   id="svg1"
   xml:space="preserve"
   inkscape:version="1.4.3 (0d15f75042, 2025-12-25)"
   sodipodi:docname="aemilia_vector.svg"
   inkscape:export-filename="aemilia_vector.png"
   inkscape:export-xdpi="1000"
   inkscape:export-ydpi="1000"
   xmlns:inkscape="http://www.inkscape.org/namespaces/inkscape"
   xmlns:sodipodi="http://sodipodi.sourceforge.net/DTD/sodipodi-0.dtd"
   xmlns:xlink="http://www.w3.org/1999/xlink"
   xmlns="http://www.w3.org/2000/svg"
   xmlns:svg="http://www.w3.org/2000/svg"><sodipodi:namedview
     id="namedview1"
     pagecolor="#976363"
     bordercolor="#000000"
     borderopacity="0.25"
     inkscape:showpageshadow="2"
     inkscape:pageopacity="0.0"
     inkscape:pagecheckerboard="0"
     inkscape:deskcolor="#d1d1d1"
     inkscape:document-units="mm"
     showgrid="true"
     inkscape:zoom="0.81517207"
     inkscape:cx="103.6591"
     inkscape:cy="169.90278"
     inkscape:window-width="1920"
     inkscape:window-height="1006"
     inkscape:window-x="0"
     inkscape:window-y="0"
     inkscape:window-maximized="1"
     inkscape:current-layer="layer1"><inkscape:grid
       id="grid1"
       units="mm"
       originx="0"
       originy="0"
       spacingx="0.99999998"
       spacingy="1"
       empcolor="#0099e5"
       empopacity="0.30196078"
       color="#0099e5"
       opacity="0.14901961"
       empspacing="5"
       enabled="true"
       visible="false" /></sodipodi:namedview><defs
     id="defs1"><inkscape:path-effect
       effect="mirror_symmetry"
       start_point="98.575589,-1.2970802"
       end_point="143.82604,292.23554"
       center_point="121.20082,145.46923"
       id="path-effect17"
       is_visible="true"
       lpeversion="1.2"
       lpesatellites=""
       mode="vertical"
       discard_orig_path="false"
       fuse_paths="false"
       oposite_fuse="false"
       split_items="false"
       split_open="false"
       link_styles="false" /><inkscape:path-effect
       effect="mirror_symmetry"
       start_point="90.329628,13.885246"
       end_point="90.329628,33.624854"
       center_point="90.329628,23.75505"
       id="path-effect16"
       is_visible="true"
       lpeversion="1.2"
       lpesatellites=""
       mode="free"
       discard_orig_path="false"
       fuse_paths="false"
       oposite_fuse="false"
       split_items="false"
       split_open="false"
       link_styles="false" /><linearGradient
       id="linearGradient15"
       inkscape:collect="always"><stop
         style="stop-color:#ffb8bf;stop-opacity:1;"
         offset="0"
         id="stop15" /><stop
         style="stop-color:#d45c8e;stop-opacity:1;"
         offset="1"
         id="stop16" /></linearGradient><linearGradient
       id="linearGradient12"
       inkscape:collect="always"><stop
         style="stop-color:#e0e3ff;stop-opacity:1;"
         offset="0"
         id="stop12" /><stop
         style="stop-color:#5153dc;stop-opacity:1;"
         offset="1"
         id="stop14" /></linearGradient><linearGradient
       id="linearGradient11"
       inkscape:collect="always"><stop
         style="stop-color:#ffbfbd;stop-opacity:1;"
         offset="0"
         id="stop11" /><stop
         style="stop-color:#ffa5c4;stop-opacity:1;"
         offset="1"
         id="stop13" /></linearGradient><linearGradient
       id="linearGradient9"
       inkscape:collect="always"><stop
         style="stop-color:#ffffff;stop-opacity:1;"
         offset="0"
         id="stop9" /><stop
         style="stop-color:#aebaed;stop-opacity:1;"
         offset="1"
         id="stop10" /></linearGradient><linearGradient
       id="linearGradient6"
       inkscape:collect="always"><stop
         style="stop-color:#ffffff;stop-opacity:1;"
         offset="0"
         id="stop7" /><stop
         style="stop-color:#aebaed;stop-opacity:1;"
         offset="1"
         id="stop8" /></linearGradient><linearGradient
       id="linearGradient3"
       inkscape:collect="always"><stop
         style="stop-color:#ffffff;stop-opacity:1;"
         offset="0"
         id="stop4" /><stop
         style="stop-color:#aebaed;stop-opacity:1;"
         offset="0.73512715"
         id="stop6" /><stop
         style="stop-color:#ffffff;stop-opacity:0;"
         offset="1"
         id="stop5" /></linearGradient><linearGradient
       id="linearGradient1"
       inkscape:collect="always"><stop
         style="stop-color:#ffffff;stop-opacity:1;"
         offset="0"
         id="stop1" /><stop
         style="stop-color:#ffffff;stop-opacity:1;"
         offset="0.45022565"
         id="stop3" /><stop
         style="stop-color:#aebaed;stop-opacity:1;"
         offset="1"
         id="stop2" /></linearGradient><inkscape:path-effect
       effect="mirror_symmetry"
       start_point="103.99975,-15.850891"
       end_point="103.99975,369.27283"
       center_point="103.99975,176.71097"
       id="path-effect10"
       is_visible="true"
       lpeversion="1.2"
       lpesatellites=""
       mode="vertical"
       discard_orig_path="false"
       fuse_paths="false"
       oposite_fuse="false"
       split_items="false"
       split_open="false"
       link_styles="false" /><inkscape:path-effect
       effect="mirror_symmetry"
       start_point="106.03769,-2.6137818"
       end_point="106.03769,294.38622"
       center_point="106.03769,145.88622"
       id="path-effect9"
       is_visible="true"
       lpeversion="1.2"
       lpesatellites=""
       mode="vertical"
       discard_orig_path="false"
       fuse_paths="true"
       oposite_fuse="false"
       split_items="false"
       split_open="false"
       link_styles="false" /><inkscape:path-effect
       effect="mirror_symmetry"
       start_point="108.57188,0.396875"
       end_point="108.57188,297.39688"
       center_point="108.57188,148.89688"
       id="path-effect8"
       is_visible="true"
       lpeversion="1.2"
       lpesatellites=""
       mode="vertical"
       discard_orig_path="false"
       fuse_paths="true"
       oposite_fuse="false"
       split_items="false"
       split_open="false"
       link_styles="false" /><inkscape:path-effect
       effect="mirror_symmetry"
       start_point="99.856325,-24.154285"
       end_point="99.856325,339.93269"
       center_point="99.856325,157.8892"
       id="path-effect2"
       is_visible="true"
       lpeversion="1.2"
       lpesatellites=""
       mode="vertical"
       discard_orig_path="false"
       fuse_paths="false"
       oposite_fuse="false"
       split_items="false"
       split_open="false"
       link_styles="false" /><inkscape:path-effect
       effect="mirror_symmetry"
       start_point="105,0"
       end_point="105,297"
       center_point="105,148.5"
       id="path-effect43"
       is_visible="true"
       lpeversion="1.2"
       lpesatellites=""
       mode="vertical"
       discard_orig_path="false"
       fuse_paths="true"
       oposite_fuse="false"
       split_items="false"
       split_open="false"
       link_styles="false" /><inkscape:path-effect
       effect="mirror_symmetry"
       start_point="105.65756,3.8458599"
       end_point="105.65756,300.84586"
       center_point="105.65756,152.34586"
       id="path-effect42"
       is_visible="true"
       lpeversion="1.2"
       lpesatellites=""
       mode="vertical"
       discard_orig_path="false"
       fuse_paths="true"
       oposite_fuse="false"
       split_items="false"
       split_open="false"
       link_styles="false" /><linearGradient
       id="linearGradient37"
       inkscape:collect="always"><stop
         style="stop-color:#f1c6ff;stop-opacity:1;"
         offset="0.5653491"
         id="stop38" /><stop
         style="stop-color:#f1c6ff;stop-opacity:0;"
         offset="1"
         id="stop39" /></linearGradient><linearGradient
       id="linearGradient36"
       inkscape:collect="always"><stop
         style="stop-color:#e34cde;stop-opacity:0.71558706;"
         offset="0"
         id="stop36" /><stop
         style="stop-color:#e34cde;stop-opacity:0;"
         offset="0.6622963"
         id="stop37" /></linearGradient><linearGradient
       id="linearGradient52"
       inkscape:collect="always"><stop
         style="stop-color:#ffd2d2;stop-opacity:1;"
         offset="0"
         id="stop53" /><stop
         style="stop-color:#ffd2d2;stop-opacity:0;"
         offset="1"
         id="stop54" /></linearGradient><inkscape:path-effect
       effect="mirror_symmetry"
       start_point="103.71972,8.4760684"
       end_point="103.71972,305.47607"
       center_point="103.71972,156.97607"
       id="path-effect49"
       is_visible="true"
       lpeversion="1.2"
       lpesatellites=""
       mode="vertical"
       discard_orig_path="false"
       fuse_paths="false"
       oposite_fuse="false"
       split_items="false"
       split_open="false"
       link_styles="false" /><inkscape:path-effect
       effect="mirror_symmetry"
       start_point="100.16655,-10.856013"
       end_point="100.16655,353.23096"
       center_point="100.16655,171.18747"
       id="path-effect35"
       is_visible="true"
       lpeversion="1.2"
       lpesatellites=""
       mode="vertical"
       discard_orig_path="false"
       fuse_paths="false"
       oposite_fuse="false"
       split_items="false"
       split_open="false"
       link_styles="false" /><inkscape:path-effect
       effect="mirror_symmetry"
       start_point="97.733375,16.745843"
       end_point="97.733375,74.482905"
       center_point="97.733375,45.614374"
       id="path-effect1"
       is_visible="true"
       lpeversion="1.2"
       lpesatellites=""
       mode="free"
       discard_orig_path="false"
       fuse_paths="true"
       oposite_fuse="false"
       split_items="false"
       split_open="false"
       link_styles="false" /><linearGradient
       inkscape:collect="always"
       xlink:href="#linearGradient52"
       id="linearGradient54"
       x1="104.97863"
       y1="29.374395"
       x2="101.22086"
       y2="55.014946"
       gradientUnits="userSpaceOnUse" /><radialGradient
       inkscape:collect="always"
       xlink:href="#linearGradient36"
       id="radialGradient37"
       cx="106.23802"
       cy="65.917778"
       fx="106.23802"
       fy="65.917778"
       r="3.1204"
       gradientTransform="matrix(1.24341,0.03012623,-0.02119787,0.87490687,-24.44142,6.0713583)"
       gradientUnits="userSpaceOnUse" /><radialGradient
       inkscape:collect="always"
       xlink:href="#linearGradient37"
       id="radialGradient39"
       cx="106.15929"
       cy="64.42897"
       fx="106.15929"
       fy="64.42897"
       r="3.21008"
       gradientTransform="matrix(0.9989289,0.04627159,-0.04121133,0.8896861,2.8087707,2.3032375)"
       gradientUnits="userSpaceOnUse" /><radialGradient
       inkscape:collect="always"
       xlink:href="#linearGradient1"
       id="radialGradient2"
       cx="103.04382"
       cy="25.42733"
       fx="103.04382"
       fy="25.42733"
       r="32.230948"
       gradientTransform="matrix(1.4953928,0.01654423,-0.01638069,1.4806095,-50.630658,-16.287002)"
       gradientUnits="userSpaceOnUse" /><linearGradient
       inkscape:collect="always"
       xlink:href="#linearGradient3"
       id="linearGradient5"
       x1="112.84641"
       y1="35.415916"
       x2="100.45583"
       y2="68.035561"
       gradientUnits="userSpaceOnUse" /><linearGradient
       inkscape:collect="always"
       xlink:href="#linearGradient6"
       id="linearGradient8"
       x1="103.36591"
       y1="39.267254"
       x2="97.155617"
       y2="63.610275"
       gradientUnits="userSpaceOnUse" /><linearGradient
       inkscape:collect="always"
       xlink:href="#linearGradient9"
       id="linearGradient10"
       x1="86.779953"
       y1="44.823833"
       x2="82.036087"
       y2="61.925812"
       gradientUnits="userSpaceOnUse" /><radialGradient
       inkscape:collect="always"
       xlink:href="#linearGradient11"
       id="radialGradient12"
       cx="104.1923"
       cy="46.150637"
       fx="104.1923"
       fy="46.150637"
       r="25.778318"
       gradientTransform="matrix(1,0,0,1.0836277,0,-3.8594726)"
       gradientUnits="userSpaceOnUse" /><linearGradient
       inkscape:collect="always"
       xlink:href="#linearGradient12"
       id="linearGradient14"
       x1="75.369095"
       y1="18.221119"
       x2="82.822006"
       y2="23.975716"
       gradientUnits="userSpaceOnUse" /><linearGradient
       inkscape:collect="always"
       xlink:href="#linearGradient15"
       id="linearGradient16"
       x1="76.665565"
       y1="14.252008"
       x2="73.97979"
       y2="30.186728"
       gradientUnits="userSpaceOnUse"
       gradientTransform="matrix(0.91931847,0.0046489,0.0046489,0.94875847,6.3824298,0.81451658)" /><linearGradient
       inkscape:collect="always"
       xlink:href="#linearGradient12"
       id="linearGradient13"
       gradientUnits="userSpaceOnUse"
       x1="75.369095"
       y1="18.221119"
       x2="82.822006"
       y2="23.975716" /><linearGradient
       inkscape:collect="always"
       xlink:href="#linearGradient15"
       id="linearGradient17"
       gradientUnits="userSpaceOnUse"
       gradientTransform="matrix(0.91931847,0.0046489,0.0046489,0.94875847,6.3824298,0.81451658)"
       x1="76.665565"
       y1="14.252008"
       x2="73.97979"
       y2="30.186728" /></defs><g
     inkscape:label="Layer 1"
     inkscape:groupmode="layer"
     id="layer1"
     style="display:inline"><g
       id="g17"
       inkscape:label="Head"><g
         id="g44"
         inkscape:label="Neck"
         style="display:inline"><path
           style="display:inline;fill:#edbfe0;fill-opacity:1;stroke:none;stroke-width:0.1;stroke-linecap:round;stroke-linejoin:round;stroke-dasharray:none;stroke-opacity:1;paint-order:stroke markers fill"
           d="m 98.496094,71.101562 c -1.461508,-0.002 -2.404672,0.5758 -2.333985,2.111329 0.287442,6.244039 -1.05664,17.27539 -1.05664,17.27539 0,0 6.931851,2.576249 10.552731,2.576172 3.62025,-7.7e-5 10.55078,-2.576172 10.55078,-2.576172 0,0 -1.34408,-11.031351 -1.05664,-17.27539 0.16158,-3.50978 -4.96911,-2.015424 -9.49414,-0.0332 -2.54532,-1.114999 -5.28302,-2.075511 -7.162106,-2.078125 z"
           id="path42"
           transform="translate(-0.6575642,-3.8458599)"
           sodipodi:nodetypes="zccszscsz" /><path
           style="display:inline;fill:#ff7979;fill-opacity:1;stroke:none;stroke-width:0.1;stroke-linecap:round;stroke-linejoin:round;stroke-dasharray:none;stroke-opacity:1;paint-order:stroke markers fill"
           d="m 95.06884,75.536501 c 0,0.330731 -0.330078,5.623047 -0.330078,5.623047 0,0 6.700228,3.227179 10.193258,3.227179 3.49302,0 10.09971,-3.227179 10.09971,-3.227179 0,0 -0.33007,-5.292316 -0.33007,-5.623047 l -9.81641,1.359375 z"
           id="path43"
           sodipodi:nodetypes="ccscccc"
           inkscape:transform-center-y="-0.45901644" /></g><g
         id="g48"
         inkscape:label="Back"
         transform="translate(0.45901639,13.837285)"
         style="display:inline;fill:#858abc;fill-opacity:0.88204"><path
           style="display:inline;fill:#aebaed;fill-opacity:1;stroke:none;stroke-width:0;stroke-linecap:round;stroke-linejoin:round;stroke-opacity:1;paint-order:stroke markers fill"
           d="m 76.625664,38.384368 c 1.183225,10.650709 2.535214,19.757345 0.455566,30.540571 -1.087986,4.198848 -3.630566,12.586512 -3.630566,12.586512 0,0 6.987611,-4.993908 9.524999,-7.540625 2.537388,-2.546717 5.820834,-7.408333 5.820834,-7.408333 1.692343,6.635813 4.725873,8.572361 9.392708,13.49375 0,0 -1.839021,-7.104833 -2.248958,-11.244792 -0.409937,-4.139959 0,-13.493749 0,-13.493749"
           id="path16"
           sodipodi:nodetypes="czczcczc" /><path
           id="path16-1"
           style="display:inline;fill:#aebaed;fill-opacity:1;stroke:none;stroke-width:0;stroke-linecap:round;stroke-linejoin:round;stroke-opacity:1;paint-order:stroke markers fill"
           d="m 133.0765,39.285571 -6.13657,5.380033 c -3.07719,-1.963909 -5.32156,1.581175 -6.49625,5.69526 l -6.68176,5.85804 c 0,8.854436 0.30065,16.113304 -2.24896,24.738542 4.33298,-4.56932 7.25793,-6.565448 9.00875,-12.138794 0.57998,5.806616 1.19218,11.261328 1.19218,11.261328 0,0 1.42492,-3.27068 3.07785,-7.823812 3.25858,3.814529 6.47834,6.887002 11.45976,10.156486 -7.50347,-14.350918 -6.59587,-27.604888 -3.175,-43.127083 z" /><path
           style="display:inline;fill:#aebaed;fill-opacity:1;stroke:none;stroke-width:0.1;stroke-linecap:round;stroke-linejoin:round;stroke-dasharray:none;stroke-opacity:1;paint-order:stroke markers fill"
           d="m 77.674287,51.364885 c -4.283516,7.158399 13.080453,32.286568 13.080453,32.286568 0,0 -1.463494,-17.797269 -2.33437,-23.281519 -0.870875,-5.48425 -6.462567,-16.163448 -10.746083,-9.005049 z"
           id="path29"
           sodipodi:nodetypes="zczz" /><path
           style="display:inline;fill:#d2d7ff;fill-opacity:1;fill-rule:nonzero;stroke-width:0;stroke-linecap:round;stroke-linejoin:round;paint-order:stroke markers fill"
           id="path56"
           sodipodi:type="arc"
           sodipodi:cx="103.69389"
           sodipodi:cy="16.18317"
           sodipodi:rx="23.245768"
           sodipodi:ry="10.009243"
           sodipodi:start="0"
           sodipodi:end="6.2830315"
           sodipodi:arc-type="slice"
           d="M 126.93966,16.18317 A 23.245768,10.009243 0 0 1 103.69479,26.192413 23.245768,10.009243 0 0 1 80.448126,16.18394 23.245768,10.009243 0 0 1 103.69121,6.1739274 23.245768,10.009243 0 0 1 126.93966,16.181631 l -23.24577,0.0015 z"
           transform="translate(0,-7.9375004)" /></g><g
         id="g49"
         inkscape:label="Face"
         style="display:inline;mix-blend-mode:normal"
         transform="translate(-0.233746,8.0310448)"><path
           style="display:inline;fill:url(#radialGradient12);fill-opacity:1;stroke:none;stroke-width:0;stroke-linecap:round;stroke-linejoin:round;stroke-opacity:1;paint-order:stroke markers fill"
           d="m 104.19132,18.216537 -25.777336,0.207031 c 0,0 1.578502,27.319945 5.15025,35.79349 3.571748,8.473545 6.170275,11.503286 10.83025,14.737696 4.659975,3.23441 10.648386,5.129983 10.648386,5.129983 0,0 5.20222,-1.467294 9.59118,-4.702037 4.38896,-3.234743 5.82789,-4.293782 9.62575,-12.747166 3.79785,-8.453384 5.71082,-38.211966 5.71082,-38.211966 z"
           id="path1"
           sodipodi:nodetypes="cczzczzcc" /><path
           style="mix-blend-mode:multiply;fill:url(#linearGradient54);fill-rule:nonzero;stroke-width:0;stroke-linecap:round;stroke-linejoin:round;paint-order:stroke markers fill"
           d="m 83.254456,30.869629 c -3.086963,2.993419 -2.999261,17.64422 -2.999261,17.64422 0,0 19.134972,-4.384229 18.203545,-10.100841 -0.931423,-5.716612 1.378515,11.605811 1.378515,11.605811 l 4.058915,-4.751767 1.16708,4.233006 c 0,0 22.16823,-8.008297 21.47014,-17.733398 -0.52654,-7.33519 -16.05753,-17.73501 -16.05753,-17.73501 z"
           id="path52"
           sodipodi:nodetypes="cczcccscc" /><path
           style="display:inline;fill:#923131;fill-opacity:1;stroke:none;stroke-width:0.0577191;stroke-linecap:round;stroke-linejoin:round;stroke-dasharray:none;stroke-opacity:1;paint-order:stroke markers fill"
           d="m 103.09652,75.201333 c 0,0 1.65897,-0.121519 2.48979,-0.116338 0.88887,0.0055 2.66199,0.157679 2.66199,0.157679 0,0 -1.77707,-0.371017 -2.64378,-0.374763 -0.86671,-0.0037 -2.508,0.333422 -2.508,0.333422 z"
           id="path41"
           sodipodi:nodetypes="csczc"
           transform="translate(0.233746,-8.0310448)" /></g><g
         id="g10"
         inkscape:label="Ears"
         style="display:inline"
         transform="rotate(8.763626,93.324143,41.271746)"><g
           id="g18"
           inkscape:label="RightEar"><path
             style="display:inline;fill:url(#linearGradient14);stroke-width:0;stroke-linecap:round;stroke-linejoin:round;stroke-opacity:0.728665;paint-order:stroke markers fill"
             d="m 74.819673,33.27869 c -2.625428,-0.324995 -8.147542,-19.393444 -8.147542,-19.393444 0,0 22.250997,1.9707 23.409835,4.016394 1.158838,2.045694 -12.636865,15.702045 -15.262293,15.37705 z"
             id="path17"
             sodipodi:nodetypes="zczz" /><path
             style="display:inline;fill:url(#linearGradient16);stroke-width:0;stroke-linecap:round;stroke-linejoin:round;stroke-opacity:0.728665;paint-order:stroke markers fill"
             d="m 76.305408,33.618979 c -2.415115,-0.320547 -7.580344,-18.437571 -7.580344,-18.437571 0,0 20.464914,1.973161 21.539765,3.919418 1.074853,1.946257 -11.544306,14.8387 -13.959421,14.518153 z"
             id="path18"
             sodipodi:nodetypes="zczz" /></g><g
           id="g11"
           inkscape:label="LeftEar"
           transform="matrix(-0.95357382,0.30115939,0.30115939,0.95357382,193.53439,-29.602691)"><path
             style="display:inline;fill:url(#linearGradient13);stroke-width:0;stroke-linecap:round;stroke-linejoin:round;stroke-opacity:0.728665;paint-order:stroke markers fill"
             d="m 74.819673,33.27869 c -2.625428,-0.324995 -8.147542,-19.393444 -8.147542,-19.393444 0,0 22.250997,1.9707 23.409835,4.016394 1.158838,2.045694 -12.636865,15.702045 -15.262293,15.37705 z"
             id="path10"
             sodipodi:nodetypes="zczz" /><path
             style="display:inline;fill:url(#linearGradient17);stroke-width:0;stroke-linecap:round;stroke-linejoin:round;stroke-opacity:0.728665;paint-order:stroke markers fill"
             d="m 76.305408,33.618979 c -2.415115,-0.320547 -7.580344,-18.437571 -7.580344,-18.437571 0,0 20.464914,1.973161 21.539765,3.919418 1.074853,1.946257 -11.544306,14.8387 -13.959421,14.518153 z"
             id="path11"
             sodipodi:nodetypes="zczz" /></g></g><g
         id="g47"
         inkscape:label="Hair"
         transform="translate(0.79175907,17.670514)"
         style="display:inline"><path
           style="display:none;opacity:1;fill:#e6f6ff;fill-opacity:1;stroke:none;stroke-width:0;stroke-linecap:round;stroke-linejoin:round;stroke-opacity:1;paint-order:stroke markers fill"
           d="m 84.705413,32.33299 c 0,0 -1.599159,1.693874 -2.419997,8.677427 -0.820838,6.983553 12.964583,32.543749 12.964583,32.543749 0,0 -5.564481,-3.489851 -7.540625,-5.490104 C 85.73323,66.063808 83.343749,61.9125 83.343749,61.9125 c 0,0 0.697006,5.736835 1.5875,8.466666 0.666749,2.043936 2.778125,5.820833 2.778125,5.820833 0,0 -6.936682,-5.518615 -9.392708,-9.128125 C 74.257845,61.106811 71.420757,54.165969 69.982291,47.095833 68.558,40.095368 68.662775,32.709127 69.85,25.664583 c 1.010577,-5.996381 1.854593,-11.09038 5.337061,-16.0753844 2.185977,-3.1291328 8.585724,-8.75409879 15.300438,-9.85378193 7.898252,-1.29351367 12.116041,0.93463687 12.116041,0.93463687 0,0 6.80501,-2.59821874 12.88709,-1.33151187 6.41549,1.3361449 12.56869,4.88667503 17.19791,9.52499993 2.77452,2.7799764 4.73754,6.5079974 5.68854,10.3187504 1.45227,5.819396 0.1446,12.007769 -0.26458,17.991666 -0.29702,4.343662 -0.30319,8.804515 -1.5875,12.964583 -1.30321,4.221284 -3.45519,8.224376 -6.08541,11.773959 -1.42956,1.929248 -5.15938,5.027083 -5.15938,5.027083 1.08122,-8.316416 -0.66145,-26.855208 -0.66145,-26.855208 0,0 -2.74095,-11.441461 -4.57543,-8.914444 -5.54999,7.645172 -14.50919,10.966056 -14.50919,10.966056 l -6.015318,-11.77756 c 0,0 -4.156145,9.089596 -12.386633,10.115048 z"
           id="path15"
           sodipodi:nodetypes="czczcscssssscssssssccscccc" /><path
           style="display:inline;opacity:1;fill:url(#radialGradient2);fill-opacity:1;stroke:none;stroke-width:0;stroke-linecap:round;stroke-linejoin:round;stroke-opacity:1;paint-order:stroke markers fill"
           d="m 84.506975,24.660073 c 0,0 -2.905174,5.398041 -2.270803,16.350344 0.63437,10.952303 13.013827,32.543749 13.013827,32.543749 0,0 -5.564481,-3.489851 -7.540625,-5.490104 C 85.73323,66.063808 83.343749,61.9125 83.343749,61.9125 c 0,0 0.697006,5.736835 1.5875,8.466666 0.666749,2.043936 2.778125,5.820833 2.778125,5.820833 0,0 -5.113249,-4.184193 -7.569275,-7.793703 C 76.081278,62.441233 73.530335,57.991547 71.805724,48.430255 70.081113,38.868963 69.102586,7.5485206 89.569466,0.65344944 c 7.948268,-2.67768574 13.034074,0.0166041 13.034074,0.0166041 0,0 8.52632,-1.56543187 14.6084,-0.298725 6.41549,1.33614486 8.78418,5.09761496 12.24318,10.66349646 5.82735,9.376797 6.53081,15.886641 5.68854,26.271425 -0.27493,12.621213 -7.05815,21.062551 -13.92062,31.580775 1.08122,-8.316416 3.43265,-29.96328 3.43265,-29.96328 0,0 1.05857,-13.32354 1.20847,-6.695481 0.2136,9.444862 -20.33002,9.907723 -20.33002,9.907723 l -4.79259,-13.877705 c 0,0 -5.445019,12.115783 -13.675507,13.141235 z"
           id="path15-2"
           sodipodi:nodetypes="czczcscszscsssccscccc"
           transform="translate(-0.01284273,-4.4144373)" /><path
           style="display:inline;fill:url(#linearGradient8);fill-opacity:1;stroke:none;stroke-width:0.1;stroke-linecap:round;stroke-linejoin:round;stroke-dasharray:none;stroke-opacity:1;paint-order:stroke markers fill"
           d="m 101.53855,53.542131 c 2.05053,-5.357813 -2.716677,-25.628589 -2.716677,-25.628589 0,0 13.331927,6.915326 14.221357,9.789583 1.86704,6.03346 -11.50468,15.839006 -11.50468,15.839006 z"
           id="path19"
           sodipodi:nodetypes="ccsc"
           transform="translate(-0.18708867,-11.679274)" /><path
           style="display:inline;fill:url(#linearGradient5);fill-opacity:1;stroke:none;stroke-width:0.1;stroke-linecap:round;stroke-linejoin:round;stroke-dasharray:none;stroke-opacity:1;paint-order:stroke markers fill"
           d="m 106.42353,55.573595 c 0.013,-5.966691 -1.36689,-25.302487 -1.36689,-25.302487 0,0 22.78362,-4.219428 23.92606,0.615768 3.71694,15.731324 -22.55917,24.686719 -22.55917,24.686719 z"
           id="path19-1"
           sodipodi:nodetypes="ccsc"
           transform="translate(-0.18708867,-11.679274)" /><path
           style="display:inline;fill:url(#linearGradient10);fill-opacity:1;stroke:none;stroke-width:0.126034;stroke-linecap:round;stroke-linejoin:round;stroke-dasharray:none;stroke-opacity:1;paint-order:stroke markers fill"
           d="M 82.952742,56.57573 C 89.360711,42.294744 88.842067,28.327065 88.842067,28.327065 L 78.535946,34.176298 Z"
           id="path19-3"
           sodipodi:nodetypes="cccc"
           transform="translate(-0.18708867,-11.679274)" /><path
           style="display:inline;fill:#aebaed;fill-opacity:1;stroke:none;stroke-width:0.1;stroke-linecap:round;stroke-linejoin:round;stroke-dasharray:none;stroke-opacity:1;paint-order:stroke markers fill"
           d="m 106.3625,49.410937 c 1.65364,-0.595312 6.18463,-8.334374 6.18463,-8.334374 0,0 -2.54192,2.755426 -3.33567,4.409072 -0.79375,1.653646 -2.84896,3.925302 -2.84896,3.925302 z"
           id="path28"
           sodipodi:nodetypes="cczc"
           transform="translate(-0.18708867,-11.679274)" /><path
           style="display:inline;fill:#aebaed;fill-opacity:1;stroke:none;stroke-width:0.1;stroke-linecap:round;stroke-linejoin:round;stroke-dasharray:none;stroke-opacity:1;paint-order:stroke markers fill"
           d="m 100.63927,35.998758 c 1.55499,-0.819111 2.62915,-17.542012 2.62915,-17.542012 0,0 0.43767,11.604935 -0.11883,13.35276 -0.5565,1.747825 -2.51032,4.189252 -2.51032,4.189252 z"
           id="path28-6"
           sodipodi:nodetypes="cczc"
           transform="translate(-0.18708867,-11.679274)" /><path
           style="display:inline;fill:#aebaed;fill-opacity:1;stroke:none;stroke-width:0.1;stroke-linecap:round;stroke-linejoin:round;stroke-dasharray:none;stroke-opacity:1;paint-order:stroke markers fill"
           d="m 126.33855,42.611283 c 0.7775,-0.409556 2.54969,-6.949986 1.78891,-13.200938 -0.76078,-6.250953 -4.05455,-12.212428 -4.05455,-12.212428 0,0 5.06788,4.990351 5.04054,12.823593 -0.0273,7.833242 -2.7749,12.589773 -2.7749,12.589773 z"
           id="path28-6-5"
           sodipodi:nodetypes="csczc"
           transform="translate(-0.18708867,-11.679274)" /><path
           style="display:inline;fill:#aebaed;fill-opacity:1;stroke:none;stroke-width:0.1;stroke-linecap:round;stroke-linejoin:round;stroke-dasharray:none;stroke-opacity:1;paint-order:stroke markers fill"
           d="m 83.960745,28.178362 c -1.55499,0.819111 -3.79845,13.695916 -3.79845,13.695916 0,0 0.96549,-7.665295 1.52199,-9.41312 0.5565,-1.747825 2.27646,-4.282796 2.27646,-4.282796 z"
           id="path28-6-2"
           sodipodi:nodetypes="cczc"
           transform="translate(-0.18708867,-11.679274)" /></g><g
         id="g15"
         inkscape:label="eyes"
         style="display:inline"
         transform="matrix(0.82060741,0,0,0.81573915,25.041534,20.100471)"><g
           id="g6"
           inkscape:label="eyeleft"
           style="display:inline"
           transform="translate(-2.4181776,-0.48652194)"><path
             style="display:inline;fill:#ff7979;fill-opacity:1;fill-rule:nonzero;stroke-width:0;stroke-linecap:round;stroke-linejoin:round;paint-order:stroke markers fill"
             id="ellipse34"
             transform="scale(-1,1)"
             sodipodi:type="arc"
             sodipodi:cx="-84.571663"
             sodipodi:cy="49.629066"
             sodipodi:rx="7.9805269"
             sodipodi:ry="6.0932026" /><path
             style="display:inline;fill:#ffffff;fill-opacity:1;stroke:#282537;stroke-width:0;stroke-linecap:round;stroke-linejoin:round;paint-order:stroke markers fill"
             d="m 91.27034,53.095556 c 1.166779,-1.124696 2.470325,-4.743027 2.470325,-4.743027 l -8.827299,-3.689021 -7.778706,0.427783 c 0.309172,2.779707 0.829963,5.308123 2.868555,7.379531 2.717529,2.38045 8.437689,2.96373 11.267125,0.624734 z"
             id="path6"
             sodipodi:nodetypes="zcccsz" /><g
             id="g12"><path
               id="path7"
               style="display:inline;fill:#d61948;fill-opacity:1;stroke:none;stroke-width:0;stroke-linecap:round;stroke-linejoin:round;paint-order:stroke markers fill"
               d="m 90.751567,46.359444 c -0.435364,-0.525827 -2.152786,-0.735622 -4.05505,-1.004073 -0.441874,-0.06236 -0.87925,-0.137597 -1.300696,-0.209289 z" /><path
               id="path14"
               style="display:inline;fill:#d61948;fill-opacity:1;stroke:none;stroke-width:0;stroke-linecap:round;stroke-linejoin:round;paint-order:stroke markers fill"
               d="m 81.949003,48.945333 c 0.314914,1.141254 0.879072,2.273213 1.736845,3.024105 1.247276,0.892341 2.527715,1.026575 4.21783,0.281119 1.098378,-0.597207 1.733442,-1.908006 2.156975,-3.113505 -1.132203,-0.274256 -2.953495,-0.67569 -4.023011,-0.704349 -1.197167,-0.03208 -3.13586,0.32102 -4.088639,0.51263 z" /><path
               id="path13"
               style="display:inline;fill:#95003f;fill-opacity:1;stroke:none;stroke-width:0;stroke-linecap:round;stroke-linejoin:round;paint-order:stroke markers fill"
               d="m 81.949003,48.945333 c 0.952779,-0.19161 2.891472,-0.54471 4.088639,-0.51263 1.069516,0.02866 2.890808,0.430093 4.023011,0.704349 0.337913,-0.961798 0.541122,-1.856729 0.737939,-2.267561 0.09527,-0.198857 0.07208,-0.366198 -0.04703,-0.510047 0,0 -1.547041,-1.597378 -5.241752,-2.388774 -3.694711,-0.791396 -3.573111,0.602966 -3.801624,1.89268 -0.139775,0.788881 -0.07424,1.94024 0.240812,3.081983 z"
               sodipodi:nodetypes="sscsczsss" /></g><g
             id="g3"
             inkscape:label="lashes"
             style="display:inline"><path
               style="fill:#3b1443;fill-opacity:1;stroke:#282537;stroke-width:0;stroke-linecap:round;stroke-linejoin:round;paint-order:stroke markers fill"
               d="m 75.594018,43.748345 c 0,0 4.144829,-1.314573 5.578724,-1.441081 2.908625,-0.424272 9.925797,1.516085 12.633799,6.045265 0,0 -5.859349,-3.14054 -8.948554,-3.495071 -3.019032,-0.346478 -9.1013,1.387059 -9.1013,1.387059 z"
               id="path2"
               sodipodi:nodetypes="cscscc" /><path
               style="fill:#3b1443;fill-opacity:1;stroke:#282537;stroke-width:0;stroke-linecap:round;stroke-linejoin:round;paint-order:stroke markers fill"
               d="m 75.507685,39.640371 c 3.653727,0.505353 4.824358,0.887321 8.244823,2.934598 l -5.123901,0.652132 z"
               id="path3"
               sodipodi:nodetypes="cccc" /><path
               style="fill:#3b1443;fill-opacity:1;stroke:#282537;stroke-width:0;stroke-linecap:round;stroke-linejoin:round;paint-order:stroke markers fill"
               d="m 72.107276,41.829672 c 2.301364,0.689055 3.157894,0.942834 6.148684,1.816658 l -2.142723,2.096142 c -2.300778,-1.308258 -2.840962,-1.902751 -4.005961,-3.9128 z"
               id="path4"
               sodipodi:nodetypes="cccc" /><path
               style="display:inline;fill:#3b1443;fill-opacity:1;stroke:#282537;stroke-width:0;stroke-linecap:round;stroke-linejoin:round;paint-order:stroke markers fill"
               d="m 72.223942,46.136882 c 1.888644,-1.000269 3.768881,-2.016207 5.650371,-3.02983 l -0.05067,2.997083 c -2.556154,0.686728 -3.358328,0.64355 -5.599701,0.03275 z"
               id="path4-0"
               sodipodi:nodetypes="cccc" /><path
               style="display:inline;fill:#3b1443;fill-opacity:1;stroke:#282537;stroke-width:0;stroke-linecap:round;stroke-linejoin:round;paint-order:stroke markers fill"
               d="m 75.797409,45.961868 c 0,0 0.328448,2.486939 1.289402,4.283995 0.960954,1.797056 3.630983,2.773812 3.630983,2.773812 0,0 -4.321638,-4.094959 -2.511685,-7.570196 z"
               id="path5"
               sodipodi:nodetypes="czccc" /></g><path
             style="fill:#3b1443;fill-opacity:1;fill-rule:nonzero;stroke-width:0;stroke-linecap:round;stroke-linejoin:round;paint-order:stroke markers fill"
             id="path21"
             sodipodi:type="arc"
             sodipodi:cx="86.166023"
             sodipodi:cy="47.625759"
             sodipodi:rx="2.3619945"
             sodipodi:ry="2.4204597"
             sodipodi:start="0"
             sodipodi:end="6.2828975"
             sodipodi:arc-type="slice" /><path
             style="display:inline;fill:#3b1443;fill-opacity:1;fill-rule:nonzero;stroke-width:0;stroke-linecap:round;stroke-linejoin:round;paint-order:stroke markers fill"
             d="m 82.18732,43.82802 c 0,0 -3.175592,0.01622 -0.659036,0.788102 2.516556,0.771882 2.912696,3.386967 2.912696,3.386967 0,0 2.723059,-0.104407 3.329835,-0.879656 0.606776,-0.775249 2.984155,-0.869805 2.984155,-0.869805 z"
             id="path22"
             sodipodi:nodetypes="czczcc" /><path
             style="display:inline;fill:#ffffff;fill-opacity:1;stroke:none;stroke-width:0.122224;stroke-linecap:round;stroke-linejoin:round;stroke-dasharray:none;stroke-opacity:1;paint-order:stroke markers fill"
             id="path33"
             sodipodi:type="arc"
             sodipodi:cx="84.738441"
             sodipodi:cy="47.323898"
             sodipodi:rx="0.7254535"
             sodipodi:ry="0.72978294"
             sodipodi:start="0"
             sodipodi:end="6.2830315"
             sodipodi:arc-type="slice" /><path
             style="display:inline;fill:#3b1443;fill-opacity:1;stroke:none;stroke-width:0.122224;stroke-linecap:round;stroke-linejoin:round;stroke-dasharray:none;stroke-opacity:1;paint-order:stroke markers fill"
             d="m 70.970485,36.22652 c 0.569968,0.114674 12.345862,2.063604 16.586128,3.956264 4.240267,1.89266 5.471714,4.988333 5.471714,4.988333 0,0 -2.222883,-2.866858 -5.89919,-4.357624 C 83.45283,39.322727 70.970485,36.22652 70.970485,36.22652 Z"
             id="path39"
             sodipodi:nodetypes="czczc"
             transform="translate(1.1284827,0.48652183)" /></g><g
           id="g6-2"
           inkscape:label="eyeleft"
           style="display:inline"
           transform="matrix(-1,0,0,1,196.91389,-0.5133823)"><ellipse
             style="display:inline;fill:#ff7979;fill-opacity:1;fill-rule:nonzero;stroke-width:0;stroke-linecap:round;stroke-linejoin:round;paint-order:stroke markers fill"
             id="ellipse34-0"
             transform="scale(-1,1)"
             cx="-84.571663"
             cy="49.629066"
             rx="7.9805269"
             ry="6.0932026" /><path
             style="display:inline;fill:#ffffff;fill-opacity:1;stroke:#282537;stroke-width:0;stroke-linecap:round;stroke-linejoin:round;paint-order:stroke markers fill"
             d="m 91.27034,53.095556 c 1.166779,-1.124696 2.470325,-4.743027 2.470325,-4.743027 l -8.827299,-3.689021 -7.778706,0.427783 c 0.309172,2.779707 0.829963,5.308123 2.868555,7.379531 2.717529,2.38045 8.437689,2.96373 11.267125,0.624734 z"
             id="path6-2"
             sodipodi:nodetypes="zcccsz" /><g
             id="g12-3"><path
               id="path7-7"
               style="display:inline;fill:#d61948;fill-opacity:1;stroke:none;stroke-width:0;stroke-linecap:round;stroke-linejoin:round;paint-order:stroke markers fill"
               d="m 90.751567,46.359444 c -0.435364,-0.525827 -2.152786,-0.735622 -4.05505,-1.004073 -0.441874,-0.06236 -0.87925,-0.137597 -1.300696,-0.209289 z" /><path
               id="path14-5"
               style="display:inline;fill:#d61948;fill-opacity:1;stroke:none;stroke-width:0;stroke-linecap:round;stroke-linejoin:round;paint-order:stroke markers fill"
               d="m 81.949003,48.945333 c 0.314914,1.141254 0.879072,2.273213 1.736845,3.024105 1.247276,0.892341 2.527715,1.026575 4.21783,0.281119 1.098378,-0.597207 1.733442,-1.908006 2.156975,-3.113505 -1.132203,-0.274256 -2.953495,-0.67569 -4.023011,-0.704349 -1.197167,-0.03208 -3.13586,0.32102 -4.088639,0.51263 z" /><path
               id="path13-9"
               style="display:inline;fill:#95003f;fill-opacity:1;stroke:none;stroke-width:0;stroke-linecap:round;stroke-linejoin:round;paint-order:stroke markers fill"
               d="m 81.949003,48.945333 c 0.952779,-0.19161 2.891472,-0.54471 4.088639,-0.51263 1.069516,0.02866 2.890808,0.430093 4.023011,0.704349 0.337913,-0.961798 0.541122,-1.856729 0.737939,-2.267561 0.09527,-0.198857 0.07208,-0.366198 -0.04703,-0.510047 0,0 -1.547041,-1.597378 -5.241752,-2.388774 -3.694711,-0.791396 -3.573111,0.602966 -3.801624,1.89268 -0.139775,0.788881 -0.07424,1.94024 0.240812,3.081983 z"
               sodipodi:nodetypes="sscsczsss" /></g><g
             id="g3-2"
             inkscape:label="lashes"
             style="display:inline"><path
               style="fill:#3b1443;fill-opacity:1;stroke:#282537;stroke-width:0;stroke-linecap:round;stroke-linejoin:round;paint-order:stroke markers fill"
               d="m 75.594018,43.748345 c 0,0 4.144829,-1.314573 5.578724,-1.441081 2.908625,-0.424272 9.925797,1.516085 12.633799,6.045265 0,0 -5.859349,-3.14054 -8.948554,-3.495071 -3.019032,-0.346478 -9.1013,1.387059 -9.1013,1.387059 z"
               id="path2-2"
               sodipodi:nodetypes="cscscc" /><path
               style="fill:#3b1443;fill-opacity:1;stroke:#282537;stroke-width:0;stroke-linecap:round;stroke-linejoin:round;paint-order:stroke markers fill"
               d="m 75.507685,39.640371 c 3.653727,0.505353 4.824358,0.887321 8.244823,2.934598 l -5.123901,0.652132 z"
               id="path3-8"
               sodipodi:nodetypes="cccc" /><path
               style="fill:#3b1443;fill-opacity:1;stroke:#282537;stroke-width:0;stroke-linecap:round;stroke-linejoin:round;paint-order:stroke markers fill"
               d="m 72.107276,41.829672 c 2.301364,0.689055 3.157894,0.942834 6.148684,1.816658 l -2.142723,2.096142 c -2.300778,-1.308258 -2.840962,-1.902751 -4.005961,-3.9128 z"
               id="path4-9"
               sodipodi:nodetypes="cccc" /><path
               style="display:inline;fill:#3b1443;fill-opacity:1;stroke:#282537;stroke-width:0;stroke-linecap:round;stroke-linejoin:round;paint-order:stroke markers fill"
               d="m 72.223942,46.136882 c 1.888644,-1.000269 3.768881,-2.016207 5.650371,-3.02983 l -0.05067,2.997083 c -2.556154,0.686728 -3.358328,0.64355 -5.599701,0.03275 z"
               id="path4-0-7"
               sodipodi:nodetypes="cccc" /><path
               style="display:inline;fill:#3b1443;fill-opacity:1;stroke:#282537;stroke-width:0;stroke-linecap:round;stroke-linejoin:round;paint-order:stroke markers fill"
               d="m 75.797409,45.961868 c 0,0 0.328448,2.486939 1.289402,4.283995 0.960954,1.797056 3.630983,2.773812 3.630983,2.773812 0,0 -4.321638,-4.094959 -2.511685,-7.570196 z"
               id="path5-3"
               sodipodi:nodetypes="czccc" /></g><path
             style="fill:#3b1443;fill-opacity:1;fill-rule:nonzero;stroke-width:0;stroke-linecap:round;stroke-linejoin:round;paint-order:stroke markers fill"
             id="path21-6"
             sodipodi:type="arc"
             sodipodi:cx="86.166023"
             sodipodi:cy="47.625759"
             sodipodi:rx="2.3619945"
             sodipodi:ry="2.4204597"
             sodipodi:start="0"
             sodipodi:end="6.2828975"
             sodipodi:arc-type="slice"
             d="m 88.528018,47.625759 a 2.3619945,2.4204597 0 0 1 -2.361825,2.42046 2.3619945,2.4204597 0 0 1 -2.362164,-2.420112 2.3619945,2.4204597 0 0 1 2.361484,-2.420808 2.3619945,2.4204597 0 0 1 2.362505,2.419763 l -2.361995,6.97e-4 z" /><path
             style="display:inline;fill:#3b1443;fill-opacity:1;fill-rule:nonzero;stroke-width:0;stroke-linecap:round;stroke-linejoin:round;paint-order:stroke markers fill"
             d="m 82.18732,43.82802 c 0,0 -3.175592,0.01622 -0.659036,0.788102 2.516556,0.771882 2.912696,3.386967 2.912696,3.386967 0,0 2.723059,-0.104407 3.329835,-0.879656 0.606776,-0.775249 2.984155,-0.869805 2.984155,-0.869805 z"
             id="path22-1"
             sodipodi:nodetypes="czczcc" /><path
             style="display:inline;fill:#ffffff;fill-opacity:1;stroke:none;stroke-width:0.122224;stroke-linecap:round;stroke-linejoin:round;stroke-dasharray:none;stroke-opacity:1;paint-order:stroke markers fill"
             id="path33-2"
             sodipodi:type="arc"
             sodipodi:cx="84.738441"
             sodipodi:cy="47.323898"
             sodipodi:rx="0.7254535"
             sodipodi:ry="0.72978294"
             sodipodi:start="0"
             sodipodi:end="6.2830315"
             sodipodi:arc-type="slice"
             d="m 85.463895,47.323898 a 0.7254535,0.72978294 0 0 1 -0.725426,0.729783 0.7254535,0.72978294 0 0 1 -0.725481,-0.729727 0.7254535,0.72978294 0 0 1 0.72537,-0.729839 0.7254535,0.72978294 0 0 1 0.725537,0.729671 l -0.725454,1.12e-4 z" /><path
             style="display:inline;fill:#3b1443;fill-opacity:1;stroke:none;stroke-width:0.122224;stroke-linecap:round;stroke-linejoin:round;stroke-dasharray:none;stroke-opacity:1;paint-order:stroke markers fill"
             d="m 70.970485,36.22652 c 0.569968,0.114674 12.345862,2.063604 16.586128,3.956264 4.240267,1.89266 5.471714,4.988333 5.471714,4.988333 0,0 -2.222883,-2.866858 -5.89919,-4.357624 C 83.45283,39.322727 70.970485,36.22652 70.970485,36.22652 Z"
             id="path39-9"
             sodipodi:nodetypes="czczc"
             transform="translate(1.1284827,0.48652183)" /></g></g><g
         id="g40"
         inkscape:label=" Nose"
         transform="matrix(0.46425271,0,0,1,55.727467,0.1984375)"
         style="display:inline"><path
           style="mix-blend-mode:overlay;fill:url(#radialGradient39);stroke:none;stroke-width:0.1;stroke-linecap:round;stroke-linejoin:round;stroke-dasharray:none;stroke-opacity:1;paint-order:stroke markers fill"
           d="m 102.92292,66.741145 c 0,0 1.85014,-2.766298 3.27421,-2.745052 1.40402,0.02095 3.14595,2.801511 3.14595,2.801511 z"
           id="path35"
           sodipodi:nodetypes="cscc" /><path
           style="fill:url(#radialGradient37);fill-opacity:0.715587;stroke:none;stroke-width:0.1;stroke-linecap:round;stroke-linejoin:round;stroke-dasharray:none;stroke-opacity:1;paint-order:stroke markers fill"
           d="m 103.03908,67.866415 0.86527,-0.818514 c 0,0 1.60515,0.492025 2.39712,0.483192 0.79197,-0.0088 2.25056,-0.506133 2.25056,-0.506133 l 0.72785,0.868136 -3.00137,1.813859 z"
           id="path36"
           sodipodi:nodetypes="cczcccc" /></g></g></g></svg>
